<?xml version="1.0" standalone="no"?>
<!DOCTYPE svg PUBLIC "-//W3C//DTD SVG 20010904//EN"
 "http://www.w3.org/TR/2001/REC-SVG-20010904/DTD/svg10.dtd">
<svg version="1.0" xmlns="http://www.w3.org/2000/svg"
 width="450.000000pt" height="176.000000pt" viewBox="0 0 450.000000 176.000000"
 preserveAspectRatio="xMidYMid meet">

<g transform="translate(0.000000,176.000000) scale(0.100000,-0.100000)"
fill="#000000" stroke="none">
<path d="M893 1255 c-120 -33 -198 -97 -254 -211 -31 -63 -34 -76 -34 -164 0
-88 3 -101 33 -162 43 -88 103 -148 188 -189 64 -31 77 -34 164 -34 87 0 100
3 164 34 85 41 145 101 188 189 30 61 33 74 33 162 0 87 -3 101 -33 162 -56
115 -136 181 -259 213 -70 18 -121 18 -190 0z m222 -104 c56 -25 115 -85 146
-147 33 -69 33 -180 0 -244 -41 -78 -71 -109 -139 -142 -94 -47 -170 -46 -265
0 -162 80 -214 275 -113 427 79 120 237 165 371 106z"/>
<path d="M957 1088 c-2 -7 -1 -23 4 -35 13 -34 66 -32 79 3 6 14 8 30 4 35 -8
14 -81 11 -87 -3z"/>
<path d="M970 1007 c0 -2 -13 -66 -30 -143 l-30 -139 33 -28 c56 -49 60 -50
100 -9 l37 37 -20 120 c-29 174 -26 165 -60 165 -17 0 -30 -2 -30 -3z m44 -76
c19 -20 24 -31 16 -36 -13 -8 -60 32 -60 52 0 20 14 16 44 -16z m26 -123 c0
-17 -28 -7 -54 21 -41 43 -23 61 20 20 19 -18 34 -37 34 -41z m-10 -90 c0 -15
-15 -8 -53 27 -21 19 -35 40 -31 46 6 11 84 -56 84 -73z"/>
<path d="M2514 1188 c3 -13 6 -44 6 -70 0 -44 2 -48 24 -48 19 0 24 6 30 38 3
20 6 52 6 70 0 30 -2 32 -36 32 -33 0 -36 -2 -30 -22z"/>
<path d="M1644 1126 c-100 -46 -145 -164 -112 -293 16 -63 87 -137 148 -153
103 -28 218 13 265 94 14 23 25 46 25 49 0 4 -18 7 -39 7 -32 0 -44 -5 -60
-29 -41 -58 -126 -77 -191 -43 -100 53 -105 243 -8 302 65 39 162 18 204 -45
13 -20 25 -25 55 -25 22 0 39 2 39 5 0 3 -9 23 -20 45 -51 100 -191 140 -306
86z"/>
<path d="M2120 915 l0 -235 135 0 135 0 0 30 0 30 -100 0 -100 0 0 70 0 70 90
0 90 0 0 30 0 30 -90 0 -90 0 0 75 0 75 100 0 100 0 0 30 0 30 -135 0 -135 0
0 -235z"/>
<path d="M2730 910 l0 -230 35 0 35 0 2 168 3 167 65 -167 65 -168 36 0 36 0
64 167 64 166 3 -166 2 -167 40 0 40 0 0 230 0 230 -48 0 -48 0 -75 -184 c-65
-163 -75 -182 -85 -163 -7 12 -42 95 -79 185 l-68 162 -43 0 -44 0 0 -230z"/>
<path d="M3432 917 c-45 -122 -82 -225 -82 -229 0 -5 17 -8 38 -8 37 0 39 2
56 50 l18 51 101 -3 101 -3 15 -47 c14 -47 15 -48 57 -48 l42 0 -87 230 -86
230 -45 0 -45 0 -83 -223z m201 -79 c-2 -5 -35 -8 -74 -8 -51 0 -69 4 -69 13
0 13 36 122 60 182 12 30 12 28 50 -75 20 -58 35 -108 33 -112z"/>
<path d="M1520 550 l0 -30 1160 0 1160 0 0 30 0 30 -1160 0 -1160 0 0 -30z"/>
</g>
</svg>
